<?xml version="1.0" encoding="UTF-8"?>
<svg width="21px" height="14px" viewBox="0 0 21 14" version="1.1" xmlns="http://www.w3.org/2000/svg" xmlns:xlink="http://www.w3.org/1999/xlink">
    <!-- Generator: Sketch 61 (89581) - https://sketch.com -->
    <title></title>
    <desc>Created with Sketch.</desc>
    <g id="Page-1" stroke="none" stroke-width="1" fill="none" fill-rule="evenodd">
        <g id="DASHBOARD" transform="translate(-947.000000, -465.000000)" fill="#10101A" fill-rule="nonzero">
            <path d="M961.249966,478.750005 C961.406215,478.750005 961.531215,478.687506 961.624965,478.562506 L961.624965,478.562506 L967.81245,472.375021 C967.93745,472.281271 967.99995,472.156271 967.99995,472.000021 C967.99995,471.843772 967.93745,471.718772 967.81245,471.625022 L967.81245,471.625022 L961.624965,465.437537 C961.531215,465.312537 961.406215,465.250038 961.249966,465.250038 C961.093717,465.250038 960.968717,465.312537 960.874967,465.437537 L960.874967,465.437537 L959.937469,466.32816 C959.812469,466.45316 959.74997,466.593785 959.74997,466.750038 C959.74997,466.906283 959.812469,467.031283 959.937469,467.125033 L959.937469,467.125033 L963.734335,470.781274 L947.562499,470.781274 C947.406249,470.781274 947.273437,470.835962 947.164062,470.945336 C947.054688,471.054711 947,471.187524 947,471.343773 L947,471.343773 L947,472.65627 C947,472.812519 947.054688,472.945332 947.164062,473.054706 C947.273437,473.164081 947.406249,473.218769 947.562499,473.218769 L947.562499,473.218769 L963.734335,473.218769 L959.937469,476.87501 C959.812469,476.96876 959.74997,477.09376 959.74997,477.250009 C959.74997,477.406258 959.812469,477.546883 959.937469,477.671883 L959.937469,477.671883 L960.874967,478.562506 C960.968717,478.687506 961.093717,478.750005 961.249966,478.750005 Z" id=""></path>
        </g>
    </g>
</svg>