<?xml version="1.0" encoding="UTF-8"?>
<svg width="27px" height="18px" viewBox="0 0 27 18" version="1.1" xmlns="http://www.w3.org/2000/svg" xmlns:xlink="http://www.w3.org/1999/xlink">
    <!-- Generator: Sketch 61 (89581) - https://sketch.com -->
    <title></title>
    <desc>Created with Sketch.</desc>
    <g id="Page-1" stroke="none" stroke-width="1" fill="none" fill-rule="evenodd">
        <g id="DASHBOARD" transform="translate(-706.000000, -463.000000)" fill="#10101A" fill-rule="nonzero">
            <path d="M723.062459,481 C723.749958,481 724.328081,480.78125 724.79683,480.343752 C725.265579,479.906253 725.499954,479.375004 725.499954,478.750005 L725.499954,478.750005 L725.499954,476.031262 L730.656191,479.218754 C730.90619,479.406254 731.18744,479.500004 731.499939,479.500004 C731.906188,479.500004 732.25775,479.359379 732.554624,479.07813 C732.851498,478.79688 732.999936,478.437506 732.999936,478.000007 L732.999936,478.000007 L732.999936,465.953161 C732.999936,465.546912 732.851498,465.203163 732.554624,464.921913 C732.25775,464.640664 731.906188,464.500043 731.499939,464.500043 C731.18744,464.500043 730.90619,464.593789 730.656191,464.781289 L730.656191,464.781289 L725.499954,467.968781 L725.499954,465.250038 C725.499954,464.625039 725.265579,464.09379 724.79683,463.656291 C724.328081,463.218793 723.749958,463.000043 723.062459,463.000043 L723.062459,463.000043 L708.437494,463.000043 C707.749996,463.000043 707.171872,463.218793 706.703123,463.656291 C706.234374,464.09379 706,464.625039 706,465.250038 L706,465.250038 L706,478.750005 C706,479.375004 706.234374,479.906253 706.703123,480.343752 C707.171872,480.78125 707.749996,481 708.437494,481 L708.437494,481 L723.062459,481 Z M723.062459,478.750005 L708.437494,478.750005 C708.343744,478.750005 708.281245,478.734381 708.249995,478.70313 L708.249995,478.70313 L708.249995,465.296912 C708.312494,465.265662 708.374995,465.250038 708.437494,465.250038 L708.437494,465.250038 L723.062459,465.250038 C723.156209,465.250038 723.218709,465.265662 723.249959,465.296912 L723.249959,465.296912 L723.249959,478.70313 C723.187459,478.734381 723.124959,478.750005 723.062459,478.750005 L723.062459,478.750005 Z M730.749941,476.640635 L725.499954,473.359393 L725.499954,470.64065 L730.749941,467.359408 L730.749941,476.640635 Z" id=""></path>
        </g>
    </g>
</svg>